<?xml version="1.0" standalone="no"?>
<!DOCTYPE svg PUBLIC "-//W3C//DTD SVG 20010904//EN"
 "http://www.w3.org/TR/2001/REC-SVG-20010904/DTD/svg10.dtd">
<svg version="1.0" xmlns="http://www.w3.org/2000/svg"
 width="650.000000pt" height="650.000000pt" viewBox="0 0 650.000000 650.000000"
 preserveAspectRatio="xMidYMid meet">
<metadata>
Created by potrace 1.14, written by Peter Selinger 2001-2017
</metadata>
<g transform="translate(0.000000,650.000000) scale(0.100000,-0.100000)"
fill="#000000" stroke="none">
<path d="M3244 6469 c-7 -11 1 -20 40 -44 14 -8 17 -34 19 -157 1 -82 0 -148
-3 -149 -46 -7 -55 -12 -48 -31 4 -9 33 -13 108 -13 88 0 103 2 106 16 1 11
-7 19 -26 22 l-27 6 1 178 1 178 -82 3 c-55 2 -84 -1 -89 -9z"/>
<path d="M3675 6453 c-51 -10 -75 -27 -92 -64 -14 -32 -22 -39 -45 -39 -40 0
-39 -35 1 -43 l30 -6 -5 -63 c-3 -35 -7 -72 -9 -83 -2 -11 -4 -25 -4 -31 -1
-6 -14 -14 -31 -17 -40 -8 -30 -37 14 -38 17 0 40 -2 51 -4 60 -10 135 -14
139 -7 9 14 -11 35 -35 36 -27 1 -28 9 -16 121 3 33 6 65 6 71 1 8 12 10 34 5
55 -11 81 -7 85 11 2 13 -7 19 -35 24 -21 5 -44 7 -51 6 -18 -4 -26 26 -14 54
14 30 35 30 107 3 31 -11 62 -18 70 -15 25 9 18 45 -11 56 -46 18 -149 30
-189 23z"/>
<path d="M2935 6339 c-72 -15 -115 -30 -115 -39 0 -5 10 -19 22 -30 25 -23 60
-20 90 7 24 21 88 20 105 -3 20 -28 16 -51 -9 -52 -13 0 -49 -5 -80 -11 -95
-20 -135 -85 -89 -142 15 -19 27 -23 66 -22 26 1 71 9 100 19 40 12 61 14 82
6 20 -6 39 -6 63 2 35 11 53 36 26 36 -22 0 -25 9 -31 91 -8 105 -12 117 -43
133 -30 15 -125 18 -187 5z m125 -182 c0 -41 -38 -59 -102 -48 -13 2 -9 59 4
63 7 3 32 5 55 7 39 2 43 0 43 -22z"/>
<path d="M2231 6303 c-56 -11 -94 -60 -65 -84 38 -32 155 31 133 72 -10 19
-21 21 -68 12z"/>
<path d="M2630 6291 c-152 -38 -209 -118 -164 -230 30 -74 92 -89 229 -55 72
18 108 43 99 69 -8 19 -17 19 -62 -3 -93 -46 -152 -16 -160 82 -4 50 -2 55 23
72 19 12 47 18 88 19 52 0 61 3 68 22 14 39 -30 47 -121 24z"/>
<path d="M3873 6294 c-3 -8 -1 -26 5 -40 9 -18 19 -24 42 -24 17 0 39 4 48 9
42 21 114 -32 99 -72 -4 -12 -15 -12 -69 -2 -86 16 -147 2 -167 -39 -32 -68
27 -115 145 -117 51 -1 75 -6 93 -20 30 -24 101 -26 101 -4 0 8 -4 15 -10 15
-15 0 -12 48 8 120 29 99 17 119 -93 155 -22 8 -67 17 -100 21 -33 3 -68 8
-78 10 -10 2 -21 -4 -24 -12z m140 -175 c31 -8 38 -14 35 -31 -4 -30 -29 -42
-70 -34 -42 8 -59 43 -31 64 20 15 19 14 66 1z"/>
<path d="M4290 6192 c0 -9 9 -23 19 -29 21 -13 23 -2 -26 -176 -4 -12 -14 -17
-31 -15 -18 2 -27 -2 -30 -13 -2 -13 18 -24 93 -49 53 -18 102 -29 110 -26 20
7 7 36 -15 36 -32 0 -33 18 -5 91 21 54 33 73 54 80 21 9 29 7 42 -10 24 -30
66 -37 89 -16 11 10 20 24 20 30 0 20 -68 43 -137 47 -32 1 -43 6 -43 18 0 12
-18 22 -60 33 -75 21 -80 21 -80 -1z"/>
<path d="M2225 6177 c-46 -17 -60 -27 -60 -42 0 -16 6 -19 28 -17 24 3 29 -2
46 -42 11 -24 24 -59 29 -78 6 -18 13 -41 17 -50 5 -14 2 -18 -13 -18 -26 0
-38 -18 -23 -33 8 -8 35 -3 98 18 100 32 108 37 99 60 -4 12 -10 14 -25 6 -26
-14 -30 -6 -70 117 -37 115 -33 113 -126 79z"/>
<path d="M1887 6123 c-4 -3 -7 -26 -7 -49 0 -33 -5 -46 -20 -54 -21 -11 -27
-35 -10 -45 5 -3 18 -1 28 4 16 9 24 -1 62 -75 52 -104 68 -115 143 -91 65 21
117 52 117 71 0 24 -18 28 -43 11 -60 -39 -78 -27 -125 76 l-30 67 64 27 c59
25 78 45 54 60 -5 3 -37 -6 -71 -20 -33 -15 -62 -25 -64 -23 -1 2 -8 13 -14
26 -9 16 -21 22 -45 22 -18 0 -36 -3 -39 -7z"/>
<path d="M4651 6071 c-17 -11 -16 -22 3 -33 23 -13 20 -42 -11 -112 -36 -82
-41 -88 -64 -76 -14 8 -20 6 -28 -8 -9 -17 -1 -23 70 -56 90 -41 95 -42 103
-21 3 8 1 15 -4 15 -18 0 -10 35 23 94 39 73 56 85 92 66 41 -22 42 -53 2
-128 -27 -52 -39 -66 -55 -64 -11 2 -22 -4 -25 -12 -4 -10 14 -26 61 -53 37
-21 75 -41 85 -45 25 -11 35 19 11 36 -17 13 -16 17 22 81 46 79 70 94 109 63
35 -27 30 -54 -24 -139 -23 -35 -41 -71 -41 -79 0 -8 24 -32 54 -52 46 -33 55
-36 66 -23 10 12 10 18 0 30 -13 16 -14 14 47 106 23 37 43 78 43 92 0 37 -68
93 -138 114 -43 12 -63 25 -74 44 -18 31 -92 69 -149 76 -30 4 -43 12 -47 25
-4 17 -25 29 -98 58 -11 5 -26 5 -33 1z"/>
<path d="M1754 5971 c-17 -11 -48 -36 -69 -56 -26 -26 -40 -34 -47 -27 -16 16
-129 -63 -121 -84 4 -11 13 -13 33 -9 31 7 38 0 92 -89 l37 -61 -21 -22 c-20
-21 -20 -23 -3 -29 10 -4 25 -2 34 4 9 6 46 29 83 52 37 22 70 45 74 51 12 20
-19 29 -43 13 -22 -14 -24 -12 -57 39 -45 71 -53 102 -32 126 10 11 25 17 36
14 29 -8 69 37 63 70 -6 32 -17 33 -59 8z"/>
<path d="M3328 5846 c-1 -2 -70 -6 -153 -9 -82 -4 -159 -8 -171 -11 -11 -2
-46 -7 -78 -10 -170 -18 -438 -88 -626 -163 -121 -48 -373 -171 -378 -185 -2
-4 -8 -8 -14 -8 -30 0 -294 -190 -423 -304 -262 -231 -476 -508 -636 -821 -81
-160 -195 -462 -215 -571 -3 -14 -11 -54 -19 -88 -15 -64 -17 -79 -34 -186
-32 -201 -34 -550 -5 -760 63 -454 220 -848 492 -1239 161 -233 356 -434 602
-624 237 -183 635 -366 960 -442 66 -15 225 -45 270 -50 30 -3 68 -8 85 -11
84 -14 460 -22 530 -10 17 2 60 7 96 11 64 6 87 9 159 21 73 13 86 15 125 26
22 5 51 12 65 14 26 5 162 45 240 70 76 25 260 105 345 149 103 54 199 107
205 115 3 3 23 17 45 30 50 30 244 174 310 232 169 146 359 364 490 562 192
291 351 680 400 976 3 19 8 42 10 50 2 8 7 35 10 60 3 25 8 52 10 60 18 70 26
470 12 615 -21 217 -61 405 -131 619 -46 139 -58 168 -141 343 -145 302 -393
626 -654 853 -35 30 -69 60 -75 65 -20 18 -130 99 -191 141 -293 201 -637 347
-987 418 -172 34 -229 42 -393 51 -60 3 -115 8 -122 10 -6 2 -13 2 -15 1z"/>
<path d="M1349 5711 c-150 -97 -173 -252 -46 -314 34 -17 41 -18 82 -4 49 17
157 94 193 138 22 27 21 59 -3 59 -7 0 -34 -22 -61 -49 -28 -27 -62 -53 -78
-57 -27 -6 -76 8 -76 23 0 5 36 35 80 68 43 33 81 67 83 75 5 21 -20 67 -42
80 -35 18 -85 11 -132 -19z m66 -79 c7 -19 -61 -83 -85 -79 -9 1 -16 15 -18
33 -2 24 3 36 22 52 29 22 71 19 81 -6z"/>
<path d="M1061 5456 c-53 -53 -60 -80 -19 -74 16 2 25 -9 44 -57 14 -33 30
-70 36 -82 6 -13 9 -25 6 -28 -5 -6 -100 33 -161 66 -21 12 -45 18 -57 14 -22
-7 -100 -101 -100 -121 0 -21 19 -26 36 -10 18 19 32 16 156 -25 48 -16 95
-29 105 -29 24 0 83 69 83 97 0 14 -14 74 -32 135 -25 85 -29 114 -21 128 9
13 9 20 0 29 -16 16 -18 15 -76 -43z"/>
<path d="M5214 5444 c-13 -50 84 -118 113 -78 16 22 -7 64 -47 88 -39 23 -59
20 -66 -10z"/>
<path d="M5565 5380 c-47 -10 -82 -38 -103 -81 -31 -63 -7 -121 91 -218 72
-71 86 -79 104 -55 12 17 11 21 -9 37 -50 39 -89 81 -94 103 -12 47 73 141
114 127 30 -11 63 -47 88 -96 21 -41 27 -46 44 -37 32 17 32 28 1 72 -70 101
-169 163 -236 148z"/>
<path d="M765 5084 c-74 -25 -162 -150 -169 -242 -5 -62 23 -117 74 -143 38
-21 85 -25 95 -9 4 6 10 8 15 5 4 -3 27 16 49 41 109 124 129 244 53 317 -41
39 -71 47 -117 31z m79 -178 c19 -25 19 -28 3 -61 -20 -42 -52 -52 -98 -31
-41 18 -62 35 -76 60 -16 29 3 72 40 90 30 14 34 14 72 -9 22 -12 49 -35 59
-49z"/>
<path d="M5770 5045 c-19 -14 -40 -36 -47 -48 -35 -63 6 -169 101 -259 117
-111 287 -24 238 122 -56 166 -197 255 -292 185z m189 -101 c29 -37 27 -75 -6
-106 -61 -57 -110 -63 -136 -19 -29 50 -19 77 47 129 38 29 70 28 95 -4z"/>
<path d="M387 4743 c-71 -138 -97 -195 -91 -204 3 -6 29 -36 58 -67 28 -30 70
-76 93 -101 l42 -46 -149 -3 -148 -3 -42 -117 c-23 -64 -44 -132 -47 -151 -5
-29 -3 -33 13 -29 11 2 20 13 22 26 2 13 10 22 20 22 9 0 73 -24 142 -53 l125
-53 -3 -33 c-3 -27 0 -32 13 -29 21 4 81 179 70 205 -6 17 -8 16 -23 -3 -17
-20 -28 -21 -67 -4 -11 5 -55 21 -97 37 -43 15 -78 30 -78 33 0 3 12 5 28 6
39 1 170 14 214 20 31 6 38 12 51 48 35 95 36 93 -77 230 -31 38 -55 70 -53
72 1 2 50 -20 107 -49 89 -44 105 -55 102 -73 -2 -12 4 -24 12 -27 11 -5 27
17 61 83 25 50 45 97 45 105 0 21 -27 19 -39 -2 -8 -16 -23 -11 -146 50 -127
63 -135 68 -125 88 12 22 7 49 -9 49 -5 0 -16 -12 -24 -27z"/>
<path d="M6134 4708 c-5 -7 -7 -25 -5 -39 2 -23 -7 -33 -74 -74 -76 -48 -76
-48 -91 -26 -16 23 -44 29 -44 9 0 -7 20 -51 44 -98 43 -82 72 -108 70 -64 0
16 15 30 58 53 79 44 103 47 123 17 38 -58 23 -90 -61 -130 -49 -23 -61 -26
-80 -16 -28 15 -47 5 -35 -18 19 -36 50 -111 57 -135 8 -33 26 -48 43 -38 10
7 10 13 2 29 -13 24 0 33 96 71 58 23 77 16 93 -34 18 -53 -3 -77 -95 -110
-42 -16 -79 -34 -82 -41 -8 -23 40 -159 57 -159 8 0 16 7 16 15 1 8 2 20 3 26
0 7 36 24 79 39 98 35 122 59 115 117 -4 44 -51 148 -81 181 -10 11 -15 32
-13 52 3 42 -36 126 -85 184 -28 32 -34 45 -24 51 10 6 4 23 -24 74 -40 72
-51 83 -62 64z"/>
<path d="M469 2860 c-1 -8 -1 -21 0 -27 1 -7 -2 -14 -6 -14 -33 -6 -59 -8
-135 -15 l-88 -7 0 27 c0 14 -5 26 -11 26 -11 0 -6 -112 10 -202 0 -5 6 -8 12
-8 7 0 9 10 5 27 -8 30 5 43 46 43 22 0 29 -5 33 -27 28 -150 55 -207 102
-216 60 -11 82 36 72 153 -15 183 -22 236 -30 245 -6 5 -9 3 -10 -5z m2 -147
c1 -10 3 -36 4 -58 4 -55 -4 -84 -27 -96 -43 -23 -69 9 -84 106 -3 22 -8 43
-10 47 -5 8 14 12 73 16 35 2 43 0 44 -15z"/>
<path d="M6169 2839 c-6 -12 -14 -65 -16 -118 -5 -85 -3 -99 14 -120 27 -33
55 -16 77 46 9 26 26 68 38 93 18 41 21 43 34 26 14 -20 10 -71 -12 -145 -13
-43 -11 -61 5 -61 19 0 34 63 37 157 3 88 1 104 -16 125 -34 41 -51 19 -106
-134 -9 -27 -22 -48 -29 -48 -22 0 -24 40 -6 110 9 37 15 73 13 79 -6 17 -20
13 -33 -10z"/>
<path d="M6290 2475 c0 -16 -3 -16 -97 1 -69 13 -91 -16 -100 -131 -4 -38 -12
-75 -18 -82 -14 -14 -29 -82 -21 -91 4 -3 12 3 19 13 13 17 16 17 78 -2 57
-17 64 -21 61 -42 -2 -15 1 -22 9 -19 6 2 20 35 30 73 22 82 22 85 9 85 -5 0
-10 -6 -10 -14 0 -25 -17 -27 -75 -11 -43 13 -56 22 -61 40 -7 30 13 95 33
102 7 3 41 0 74 -7 37 -8 64 -9 69 -4 15 15 25 104 11 104 -6 0 -11 -7 -11
-15z"/>
<path d="M328 2379 c-29 -29 -30 -33 -24 -90 16 -158 111 -245 192 -175 34 28
37 80 10 170 -34 116 -114 159 -178 95z m136 -71 c27 -42 30 -90 6 -115 -11
-13 -26 -23 -33 -24 -7 0 -20 -2 -31 -4 -30 -6 -66 38 -66 82 0 43 6 55 35 71
33 19 73 14 89 -10z"/>
<path d="M6032 2073 c-38 -33 -69 -102 -76 -173 -9 -87 78 -149 143 -104 35
25 74 119 74 182 0 45 -5 58 -28 82 -33 35 -81 40 -113 13z m92 -82 c23 -19
25 -47 6 -89 -21 -46 -47 -56 -96 -36 -41 17 -48 32 -40 79 10 52 39 75 82 65
19 -5 41 -13 48 -19z"/>
<path d="M550 2041 c0 -35 -125 -87 -136 -56 -4 8 -10 15 -15 15 -12 0 -11
-26 0 -48 6 -9 17 -38 27 -64 18 -52 39 -66 29 -19 -6 28 -4 30 47 49 63 24
89 14 99 -38 8 -39 23 -55 44 -47 14 6 13 11 -6 48 -11 23 -29 51 -40 62 -11
13 -15 23 -9 27 7 4 6 20 -3 45 -15 43 -37 58 -37 26z"/>
<path d="M653 1778 c2 -19 -9 -29 -56 -53 -37 -19 -60 -38 -63 -52 -6 -23 37
-126 57 -138 20 -13 23 6 6 34 -9 16 -17 36 -17 45 0 16 83 76 106 76 6 0 22
-20 35 -45 13 -24 27 -41 32 -36 5 5 -1 28 -13 52 -20 39 -21 44 -6 54 9 7 16
22 16 34 0 17 -6 21 -34 21 -21 0 -36 6 -40 15 -9 23 -26 18 -23 -7z"/>
<path d="M5802 1768 c-20 -25 -18 -68 3 -68 15 0 35 37 35 66 0 17 -24 18 -38
2z"/>
<path d="M5855 1699 c-18 -35 -21 -49 -12 -49 7 0 18 5 24 11 8 8 27 2 72 -21
53 -29 60 -35 55 -56 -12 -46 12 -23 44 42 24 48 30 70 22 78 -8 8 -12 4 -16
-12 -4 -12 -7 -22 -8 -22 -1 0 -37 18 -79 39 l-77 39 -25 -49z"/>
<path d="M5790 1578 c-11 -18 -20 -37 -20 -42 0 -5 -13 -6 -29 -3 -39 8 -56
-12 -35 -42 9 -12 13 -29 10 -37 -9 -23 4 -38 17 -20 10 13 21 10 76 -24 54
-32 67 -37 83 -27 21 13 51 57 67 99 16 42 -7 46 -24 4 -21 -49 -41 -51 -110
-7 l-45 28 25 47 c28 53 29 56 15 56 -6 0 -19 -15 -30 -32z"/>
<path d="M777 1554 c-15 -15 -6 -44 19 -60 47 -32 64 -94 30 -116 -6 -4 -27
17 -49 48 -56 79 -119 103 -133 50 -8 -31 17 -86 60 -134 20 -22 36 -46 36
-54 0 -8 10 -25 23 -38 l22 -25 3 22 c2 13 15 32 30 43 97 73 95 69 57 145
-31 60 -87 129 -98 119z m-14 -152 c25 -34 28 -44 17 -57 -17 -20 -25 -19 -54
10 -31 31 -41 62 -25 81 17 20 27 15 62 -34z"/>
<path d="M1022 1338 c2 -17 -18 -38 -94 -100 l-98 -79 48 -62 c57 -72 103
-107 144 -107 39 0 83 32 96 69 14 40 -17 101 -71 141 -22 16 -37 30 -31 30 5
0 24 13 42 28 l32 27 -26 38 c-31 42 -47 48 -42 15z m6 -154 c49 -34 48 -86
-2 -126 -30 -25 -59 -22 -88 10 -45 47 -43 63 9 100 55 37 52 37 81 16z"/>
<path d="M5631 1334 c-27 -34 -27 -54 -1 -47 25 7 109 -55 110 -80 0 -10 -14
-32 -30 -49 l-30 -30 -29 19 c-16 10 -43 30 -60 46 -39 34 -45 34 -72 -2 -25
-34 -24 -47 3 -43 11 2 38 -14 65 -37 25 -23 54 -41 63 -41 29 0 66 36 96 95
16 30 35 55 42 55 7 0 19 15 27 33 15 35 12 46 -8 29 -10 -8 -28 0 -77 34 -35
24 -67 44 -71 44 -4 0 -17 -12 -28 -26z"/>
<path d="M5341 1119 c-38 -38 -39 -47 -3 -42 23 4 39 -8 107 -76 44 -45 74
-81 67 -81 -6 0 -12 -7 -12 -15 0 -8 3 -15 6 -15 9 0 94 92 94 102 0 11 -14
10 -26 -2 -10 -10 -39 13 -140 111 -29 27 -54 49 -57 49 -3 0 -19 -14 -36 -31z"/>
<path d="M1245 1077 c5 -18 -8 -37 -71 -101 -66 -67 -80 -77 -95 -67 -10 6
-20 7 -23 2 -7 -11 91 -104 105 -99 8 3 6 9 -4 19 -16 17 -22 10 139 180 l25
26 -33 31 c-38 38 -50 40 -43 9z"/>
<path d="M5308 950 c-66 -20 -138 -103 -138 -160 0 -29 37 -79 66 -91 36 -13
97 15 143 67 54 61 59 105 19 155 -12 14 -52 40 -60 38 -2 0 -15 -4 -30 -9z
m47 -86 c27 -29 26 -56 -6 -91 -30 -31 -64 -29 -100 6 -36 36 -37 64 -3 98 31
31 72 27 109 -13z"/>
<path d="M1260 840 c-48 -47 -42 -83 24 -145 74 -70 146 -104 130 -61 -3 8
-16 17 -30 20 -30 8 -94 71 -94 94 1 46 17 45 83 -7 68 -53 87 -60 106 -37 22
27 20 55 -6 87 -69 82 -158 102 -213 49z m155 -35 c51 -50 23 -80 -36 -39 -49
33 -56 44 -38 55 24 15 49 10 74 -16z"/>
<path d="M4963 789 c-100 -58 -151 -143 -108 -179 22 -19 59 -15 149 14 83 28
106 24 106 -15 0 -21 -62 -70 -112 -88 -47 -18 -61 -26 -65 -38 -14 -40 94 1
168 65 53 45 72 83 59 117 -19 49 -51 49 -181 -1 -49 -19 -75 -15 -86 13 -8
21 44 67 104 89 42 17 56 37 30 47 -8 3 -36 -8 -64 -24z"/>
<path d="M1810 612 c-23 -17 -49 -34 -158 -99 -22 -13 -46 -19 -59 -16 -37 9
-27 -5 33 -43 53 -34 79 -39 56 -11 -9 11 -5 18 16 34 l28 21 60 -34 c49 -28
59 -38 58 -59 -2 -42 -3 -45 -19 -39 -8 4 -15 1 -15 -5 0 -15 124 -72 129 -59
2 6 -3 14 -10 19 -10 6 -14 42 -15 144 -1 75 -5 140 -10 145 -21 21 -69 22
-94 2z m40 -93 l0 -60 -50 27 c-28 15 -48 29 -46 31 14 14 82 62 89 63 4 0 7
-27 7 -61z"/>
<path d="M4538 554 c-29 -15 -40 -41 -14 -31 19 8 30 -7 81 -110 37 -74 41
-90 29 -99 -16 -13 -18 -24 -4 -24 5 0 34 12 65 26 56 27 72 46 34 41 -17 -2
-31 17 -77 105 -35 65 -63 108 -72 108 -8 -1 -27 -8 -42 -16z"/>
<path d="M2049 406 c-15 -9 -34 -31 -43 -50 -15 -31 -15 -39 -2 -69 14 -35 48
-54 133 -74 l33 -8 -19 -32 c-15 -24 -25 -30 -40 -26 -12 3 -21 1 -21 -5 0
-13 129 -57 138 -47 3 3 0 10 -8 15 -13 8 -10 25 20 112 19 57 38 107 42 112
23 27 2 54 -36 47 -5 -1 -25 6 -45 15 -49 24 -120 28 -152 10z m146 -40 c24
-16 25 -17 9 -59 -24 -60 -47 -78 -85 -65 -44 15 -62 48 -49 84 25 65 67 78
125 40z"/>
<path d="M4341 381 c-68 -29 -83 -44 -55 -55 11 -4 31 3 54 19 39 27 61 31 91
15 27 -15 24 -29 -8 -41 -88 -31 -130 -71 -118 -108 13 -41 79 -37 155 11 19
12 44 21 55 20 11 -1 31 7 45 18 23 18 24 20 5 20 -15 0 -29 17 -53 65 -31 63
-33 65 -69 65 -21 -1 -67 -13 -102 -29z m129 -107 c0 -19 -8 -29 -37 -41 -39
-16 -68 -9 -68 18 0 15 85 60 97 52 5 -2 8 -15 8 -29z"/>
<path d="M2346 331 c-3 -5 1 -11 8 -14 13 -5 12 -17 -6 -78 l-20 -73 26 -22
c17 -15 45 -25 83 -29 32 -3 67 -11 78 -16 46 -22 85 -18 64 7 -9 10 -7 31 6
85 17 70 17 73 0 86 -22 15 -75 18 -75 3 0 -5 5 -10 11 -10 16 0 4 -87 -16
-117 -17 -25 -43 -27 -82 -5 -25 14 -26 48 -4 105 17 44 13 65 -11 72 -13 4
-30 9 -40 11 -9 3 -19 1 -22 -5z"/>
<path d="M4160 318 c-25 -12 -54 -22 -65 -23 -11 -1 -32 -2 -47 -3 -18 -1 -28
-8 -28 -17 0 -8 6 -14 12 -13 15 4 44 -53 53 -104 6 -31 4 -38 -9 -38 -9 0
-16 -4 -16 -10 0 -13 10 -13 85 6 64 16 90 38 38 32 -25 -3 -28 1 -42 54 -17
66 -7 88 39 88 30 0 56 23 45 40 -8 14 -13 13 -65 -12z"/>
<path d="M3613 302 c-28 -4 -30 -18 -3 -25 12 -3 20 -14 21 -29 0 -12 2 -32 5
-43 2 -11 7 -53 10 -93 6 -63 5 -72 -10 -72 -9 0 -16 -4 -16 -10 0 -6 21 -8
53 -4 66 7 87 13 87 26 0 5 -7 7 -15 4 -19 -7 -30 19 -39 94 -21 177 -13 164
-93 152z"/>
<path d="M3827 293 c-4 -3 -7 -15 -7 -26 0 -11 -9 -21 -20 -24 -24 -6 -21 -29
4 -27 9 1 16 -3 17 -10 6 -81 27 -135 55 -142 35 -9 124 15 124 33 0 10 -5 13
-17 8 -63 -25 -77 -15 -91 65 -11 62 -10 65 50 74 23 4 36 11 33 17 -6 9 -67
5 -86 -7 -5 -3 -13 6 -19 20 -9 25 -29 34 -43 19z"/>
<path d="M2692 234 c3 -16 13 -19 63 -21 44 -1 62 -6 72 -19 27 -37 17 -43
-68 -41 -74 2 -82 0 -100 -21 -14 -18 -16 -28 -9 -43 17 -31 51 -42 122 -42
38 1 71 -3 74 -8 7 -12 64 -12 64 0 0 6 -4 13 -10 16 -5 3 -7 28 -4 58 7 62 7
58 5 78 -1 23 -64 46 -145 54 -63 7 -68 6 -64 -11z m122 -110 c9 -3 16 -14 16
-24 0 -20 -19 -30 -59 -30 -37 0 -64 21 -55 43 6 17 64 24 98 11z"/>
<path d="M3053 196 c-43 -15 -63 -36 -72 -78 -17 -74 28 -109 143 -111 72 -1
96 5 96 24 0 6 -24 8 -57 6 -32 -3 -68 -1 -80 4 -27 10 -38 46 -29 94 6 29 12
35 42 41 19 3 52 2 74 -4 41 -10 62 0 42 20 -15 15 -122 18 -159 4z"/>
<path d="M3442 193 c-16 -11 -16 -12 -1 -13 21 0 25 -12 28 -77 3 -56 -12 -73
-62 -73 -37 0 -50 24 -52 98 l-2 67 -32 3 c-18 2 -40 1 -49 -3 -16 -6 -16 -7
1 -16 13 -8 17 -24 17 -72 1 -83 16 -103 78 -100 50 2 156 9 185 11 20 2 23
22 3 22 -15 0 -26 42 -26 104 0 22 -4 46 -8 52 -10 14 -60 13 -80 -3z"/>
</g>
</svg>
